<svg width="25" height="24" viewBox="0 0 25 24" fill="none" xmlns="http://www.w3.org/2000/svg">
<path d="M16.3301 21V19C16.3301 17.9391 15.9087 16.9217 15.1585 16.1716C14.4084 15.4214 13.3909 15 12.3301 15H6.33008C5.26921 15 4.2518 15.4214 3.50165 16.1716C2.75151 16.9217 2.33008 17.9391 2.33008 19V21" stroke="#F8C630" stroke-width="2" stroke-linecap="round" stroke-linejoin="round"/>
<path d="M9.33008 11C11.5392 11 13.3301 9.20914 13.3301 7C13.3301 4.79086 11.5392 3 9.33008 3C7.12094 3 5.33008 4.79086 5.33008 7C5.33008 9.20914 7.12094 11 9.33008 11Z" stroke="#F8C630" stroke-width="2" stroke-linecap="round" stroke-linejoin="round"/>
<path d="M22.3301 20.9999V18.9999C22.3294 18.1136 22.0344 17.2527 21.4914 16.5522C20.9485 15.8517 20.1882 15.3515 19.3301 15.1299" stroke="#F8C630" stroke-width="2" stroke-linecap="round" stroke-linejoin="round"/>
<path d="M16.3301 3.12988C17.1905 3.35018 17.9531 3.85058 18.4977 4.55219C19.0423 5.2538 19.3379 6.11671 19.3379 7.00488C19.3379 7.89305 19.0423 8.75596 18.4977 9.45757C17.9531 10.1592 17.1905 10.6596 16.3301 10.8799" stroke="#F8C630" stroke-width="2" stroke-linecap="round" stroke-linejoin="round"/>
</svg>
