<svg width="16" height="16" viewBox="0 0 16 16" fill="none" xmlns="http://www.w3.org/2000/svg">
<path d="M9.66732 2.66699H6.33398L4.66732 4.66699H2.66732C2.3137 4.66699 1.97456 4.80747 1.72451 5.05752C1.47446 5.30756 1.33398 5.6467 1.33398 6.00033V12.0003C1.33398 12.3539 1.47446 12.6931 1.72451 12.9431C1.97456 13.1932 2.3137 13.3337 2.66732 13.3337H13.334C13.6876 13.3337 14.0267 13.1932 14.2768 12.9431C14.5268 12.6931 14.6673 12.3539 14.6673 12.0003V6.00033C14.6673 5.6467 14.5268 5.30756 14.2768 5.05752C14.0267 4.80747 13.6876 4.66699 13.334 4.66699H11.334L9.66732 2.66699Z" stroke="#020817" stroke-width="1.33333" stroke-linecap="round" stroke-linejoin="round"/>
<path d="M8 10.667C9.10457 10.667 10 9.77156 10 8.66699C10 7.56242 9.10457 6.66699 8 6.66699C6.89543 6.66699 6 7.56242 6 8.66699C6 9.77156 6.89543 10.667 8 10.667Z" stroke="#020817" stroke-width="1.33333" stroke-linecap="round" stroke-linejoin="round"/>
</svg>
