<svg width="16" height="16" viewBox="0 0 16 16" fill="none" xmlns="http://www.w3.org/2000/svg">
<path fill-rule="evenodd" clip-rule="evenodd" d="M9.16699 1.33301C9.53518 1.33301 9.83366 1.63148 9.83366 1.99967V4.66634C9.83366 5.03453 9.53518 5.33301 9.16699 5.33301C8.7988 5.33301 8.50033 5.03453 8.50033 4.66634V3.99967H1.83366C1.46547 3.99967 1.16699 3.7012 1.16699 3.33301C1.16699 2.96482 1.46547 2.66634 1.83366 2.66634H8.50033V1.99967C8.50033 1.63148 8.7988 1.33301 9.16699 1.33301ZM11.167 3.33301C11.167 2.96482 11.4655 2.66634 11.8337 2.66634H13.8337C14.2018 2.66634 14.5003 2.96482 14.5003 3.33301C14.5003 3.7012 14.2018 3.99967 13.8337 3.99967H11.8337C11.4655 3.99967 11.167 3.7012 11.167 3.33301ZM7.16699 5.99967C7.53518 5.99967 7.83366 6.29815 7.83366 6.66634V7.33301H14.5003C14.8685 7.33301 15.167 7.63148 15.167 7.99967C15.167 8.36786 14.8685 8.66634 14.5003 8.66634H7.83366V9.33301C7.83366 9.7012 7.53518 9.99967 7.16699 9.99967C6.7988 9.99967 6.50033 9.7012 6.50033 9.33301V6.66634C6.50033 6.29815 6.7988 5.99967 7.16699 5.99967ZM1.16699 7.99967C1.16699 7.63148 1.46547 7.33301 1.83366 7.33301H4.50033C4.86852 7.33301 5.16699 7.63148 5.16699 7.99967C5.16699 8.36786 4.86852 8.66634 4.50033 8.66634H1.83366C1.46547 8.66634 1.16699 8.36786 1.16699 7.99967ZM9.16699 10.6663C9.53518 10.6663 9.83366 10.9648 9.83366 11.333V13.9997C9.83366 14.3679 9.53518 14.6663 9.16699 14.6663C8.7988 14.6663 8.50033 14.3679 8.50033 13.9997V13.333H1.83366C1.46547 13.333 1.16699 13.0345 1.16699 12.6663C1.16699 12.2982 1.46547 11.9997 1.83366 11.9997H8.50033V11.333C8.50033 10.9648 8.7988 10.6663 9.16699 10.6663ZM11.167 12.6663C11.167 12.2982 11.4655 11.9997 11.8337 11.9997H13.8337C14.2018 11.9997 14.5003 12.2982 14.5003 12.6663C14.5003 13.0345 14.2018 13.333 13.8337 13.333H11.8337C11.4655 13.333 11.167 13.0345 11.167 12.6663Z" fill="#020817"/>
</svg>
