<svg width="16" height="16" viewBox="0 0 16 16" fill="none" xmlns="http://www.w3.org/2000/svg">
<path d="M13.3333 5.33301H2.66667C2.29848 5.33301 2 5.63148 2 5.99967V7.33301C2 7.7012 2.29848 7.99967 2.66667 7.99967H13.3333C13.7015 7.99967 14 7.7012 14 7.33301V5.99967C14 5.63148 13.7015 5.33301 13.3333 5.33301Z" stroke="black" stroke-opacity="0.85" stroke-width="2" stroke-linecap="round" stroke-linejoin="round"/>
<path d="M8 5.33301V13.9997" stroke="black" stroke-opacity="0.85" stroke-width="2" stroke-linecap="round" stroke-linejoin="round"/>
<path d="M12.6663 8V12.6667C12.6663 13.0203 12.5259 13.3594 12.2758 13.6095C12.0258 13.8595 11.6866 14 11.333 14H4.66634C4.31272 14 3.97358 13.8595 3.72353 13.6095C3.47348 13.3594 3.33301 13.0203 3.33301 12.6667V8" stroke="black" stroke-opacity="0.85" stroke-width="2" stroke-linecap="round" stroke-linejoin="round"/>
<path d="M4.99967 5.33362C4.55765 5.33362 4.13372 5.15803 3.82116 4.84547C3.5086 4.53291 3.33301 4.10899 3.33301 3.66696C3.33301 3.22493 3.5086 2.80101 3.82116 2.48845C4.13372 2.17589 4.55765 2.00029 4.99967 2.00029C5.6428 1.98909 6.27302 2.30113 6.80817 2.89573C7.34331 3.49033 7.75852 4.33989 7.99967 5.33362C8.24082 4.33989 8.65604 3.49033 9.19118 2.89573C9.72632 2.30113 10.3566 1.98909 10.9997 2.00029C11.4417 2.00029 11.8656 2.17589 12.1782 2.48845C12.4907 2.80101 12.6663 3.22493 12.6663 3.66696C12.6663 4.10899 12.4907 4.53291 12.1782 4.84547C11.8656 5.15803 11.4417 5.33362 10.9997 5.33362" stroke="black" stroke-opacity="0.85" stroke-width="2" stroke-linecap="round" stroke-linejoin="round"/>
</svg>
