<svg width="25" height="24" viewBox="0 0 25 24" fill="none" xmlns="http://www.w3.org/2000/svg">
<path d="M20.3301 8H4.33008C3.77779 8 3.33008 8.44772 3.33008 9V11C3.33008 11.5523 3.77779 12 4.33008 12H20.3301C20.8824 12 21.3301 11.5523 21.3301 11V9C21.3301 8.44772 20.8824 8 20.3301 8Z" stroke="#8839EF" stroke-width="2" stroke-linecap="round" stroke-linejoin="round"/>
<path d="M12.3301 8V21" stroke="#8839EF" stroke-width="2" stroke-linecap="round" stroke-linejoin="round"/>
<path d="M19.3301 12V19C19.3301 19.5304 19.1194 20.0391 18.7443 20.4142C18.3692 20.7893 17.8605 21 17.3301 21H7.33008C6.79965 21 6.29094 20.7893 5.91586 20.4142C5.54079 20.0391 5.33008 19.5304 5.33008 19V12" stroke="#8839EF" stroke-width="2" stroke-linecap="round" stroke-linejoin="round"/>
<path d="M7.83008 8.00044C7.16704 8.00044 6.53115 7.73705 6.06231 7.2682C5.59347 6.79936 5.33008 6.16348 5.33008 5.50044C5.33008 4.8374 5.59347 4.20151 6.06231 3.73267C6.53115 3.26383 7.16704 3.00044 7.83008 3.00044C8.79476 2.98363 9.7401 3.4517 10.5428 4.3436C11.3455 5.2355 11.9684 6.50984 12.3301 8.00044C12.6918 6.50984 13.3146 5.2355 14.1173 4.3436C14.9201 3.4517 15.8654 2.98363 16.8301 3.00044C17.4931 3.00044 18.129 3.26383 18.5978 3.73267C19.0667 4.20151 19.3301 4.8374 19.3301 5.50044C19.3301 6.16348 19.0667 6.79936 18.5978 7.2682C18.129 7.73705 17.4931 8.00044 16.8301 8.00044" stroke="#8839EF" stroke-width="2" stroke-linecap="round" stroke-linejoin="round"/>
</svg>
