<svg width="19" height="19" viewBox="0 0 19 19" fill="none" xmlns="http://www.w3.org/2000/svg">
<path d="M5.26425 1.3848C5.59774 1.05238 6.05501 0.943214 6.45456 1.01632C6.85444 1.0895 7.25781 1.36196 7.38713 1.84418L7.58503 2.58277C8.43586 2.38386 9.31362 2.29988 10.1872 2.34049C11.9488 2.42249 13.6112 3.00414 14.9324 4.01409C16.2549 5.02508 17.1658 6.41244 17.522 7.98098C17.878 9.54945 17.658 11.2028 16.9073 12.7013C16.1572 14.1985 14.9158 15.465 13.37 16.3283C11.8243 17.1914 10.0448 17.6124 8.28325 17.5305C6.52143 17.4486 4.8584 16.8672 3.53707 15.8572C2.48107 15.05 1.68743 14.0022 1.22905 12.8127C1.07187 12.4048 1.1623 11.9931 1.37679 11.6812C1.58816 11.374 1.92472 11.1492 2.31076 11.0579L3.66581 10.7383C4.45785 10.5511 5.19969 10.9751 5.52137 11.5999C5.73662 12.0181 6.05142 12.3932 6.45187 12.6993C7.07119 13.1727 7.86613 13.457 8.72707 13.497C9.58793 13.5369 10.4608 13.3302 11.2179 12.9074C11.9751 12.4845 12.5695 11.8722 12.9231 11.1665C13.276 10.4622 13.3719 9.70136 13.2108 8.99157C13.0497 8.28189 12.6363 7.64321 12.0183 7.1708C11.399 6.69746 10.6042 6.41412 9.74334 6.37405C9.36936 6.35666 8.99256 6.38638 8.62385 6.45968L8.84779 7.29544C8.977 7.77776 8.76382 8.21532 8.45409 8.47866C8.14463 8.74176 7.69429 8.8768 7.23927 8.75565L1.77068 7.29913C1.35045 7.18707 1.04321 6.88145 0.939168 6.49373C0.835222 6.1058 0.948275 5.6868 1.25633 5.37954L5.26425 1.3848Z" stroke="white"/>
</svg>
