<svg width="24" height="24" viewBox="0 0 24 24" fill="none" xmlns="http://www.w3.org/2000/svg">
<path fill-rule="evenodd" clip-rule="evenodd" d="M11.6158 2.90039L13.9362 2.9004C14.4597 2.90039 14.7596 2.90039 15.0182 2.92074C18.2547 3.17546 20.8253 5.74609 21.0801 8.98257C21.1004 9.24123 21.1004 9.54111 21.1004 10.0646V10.138C21.1004 10.9384 21.1004 11.3775 21.0708 11.7536C20.7003 16.4612 16.9612 20.2003 12.2536 20.5708C11.8775 20.6004 11.4384 20.6004 10.638 20.6004H10.2528C9.55467 20.6004 9.15473 20.6004 8.81051 20.5642C5.71134 20.2385 3.26229 17.7895 2.93655 14.6903C2.90038 14.3461 2.90039 13.9462 2.9004 13.2482L2.90039 11.6158C2.90029 9.64977 2.90024 8.52192 3.18459 7.58452C3.82446 5.47515 5.47515 3.82446 7.58452 3.18459C8.52192 2.90024 9.64977 2.90029 11.6158 2.90039ZM11.7504 4.1004C9.61322 4.1004 8.67788 4.10692 7.93286 4.33292C6.20701 4.85645 4.85645 6.20701 4.33292 7.93286C4.10692 8.67788 4.1004 9.61322 4.1004 11.7504V13.2004C4.1004 13.9587 4.10123 14.2913 4.12998 14.5649C4.39649 17.1005 6.40026 19.1043 8.93595 19.3708C9.2095 19.3996 9.54214 19.4004 10.3004 19.4004H10.6004C11.4476 19.4004 11.8364 19.3999 12.1595 19.3745C12.2953 19.3638 12.4002 19.248 12.3998 19.107C12.3997 19.0735 12.3996 19.0399 12.3995 19.0064C12.3972 18.249 12.3948 17.4842 12.4569 16.7243C12.5144 16.0202 12.6335 15.4385 12.9018 14.912C13.3428 14.0465 14.0465 13.3428 14.912 12.9018C15.4385 12.6335 16.0202 12.5144 16.7243 12.4569C17.5482 12.3896 18.3764 12.3932 19.1981 12.3978C19.4431 12.3992 19.5335 12.3974 19.6103 12.3614C19.6771 12.3302 19.7454 12.2686 19.7834 12.2054C19.8274 12.1324 19.8375 12.0511 19.8596 11.8272C19.8651 11.7715 19.8701 11.7155 19.8745 11.6595C19.8999 11.3364 19.9004 10.9476 19.9004 10.1004C19.9004 9.53178 19.8999 9.2823 19.8838 9.07672C19.6753 6.42869 17.5721 4.32545 14.9241 4.11705C14.7185 4.10087 14.469 4.1004 13.9004 4.1004H11.7504ZM18.9755 13.5982C18.2539 13.5949 17.5352 13.5946 16.8221 13.6529C16.1921 13.7044 15.786 13.8033 15.4568 13.971C14.8171 14.2969 14.2969 14.8171 13.971 15.4568C13.8033 15.786 13.7044 16.1921 13.6529 16.8221C13.6132 17.3083 13.6035 17.8971 13.6011 18.653C13.6008 18.7578 13.6007 18.8292 13.6058 18.8839C13.6107 18.9373 13.6199 18.9636 13.6312 18.9815C13.6566 19.0219 13.7037 19.0564 13.7498 19.0684C13.771 19.074 13.7981 19.0748 13.8472 19.0644C13.8981 19.0536 13.9622 19.0333 14.0571 19.003C16.466 18.2345 18.3987 16.4134 19.3181 14.0769C19.3566 13.979 19.3827 13.9124 19.3975 13.8594C19.412 13.8081 19.4127 13.7798 19.4081 13.758C19.3979 13.7097 19.3643 13.6601 19.3231 13.6327C19.3053 13.6208 19.2779 13.6107 19.221 13.605C19.163 13.5991 19.0867 13.5987 18.9755 13.5982Z" fill="#0A0A0A"/>
</svg>
