<svg width="16" height="16" viewBox="0 0 16 16" fill="none" xmlns="http://www.w3.org/2000/svg">
<mask id="path-1-inside-1_2012_558" fill="white">
<path d="M8.66699 7.93335H4.66699C4.39366 7.93335 4.16699 7.70668 4.16699 7.43335C4.16699 7.16002 4.39366 6.93335 4.66699 6.93335H8.66699C8.94033 6.93335 9.16699 7.16002 9.16699 7.43335C9.16699 7.70668 8.94033 7.93335 8.66699 7.93335Z"/>
</mask>
<path d="M8.66699 7.93335H4.66699C4.39366 7.93335 4.16699 7.70668 4.16699 7.43335C4.16699 7.16002 4.39366 6.93335 4.66699 6.93335H8.66699C8.94033 6.93335 9.16699 7.16002 9.16699 7.43335C9.16699 7.70668 8.94033 7.93335 8.66699 7.93335Z" fill="white"/>
<path d="M8.66699 7.93335V6.93335H4.66699V7.93335V8.93335H8.66699V7.93335ZM4.66699 7.93335V6.93335C4.94594 6.93335 5.16699 7.1544 5.16699 7.43335H4.16699H3.16699C3.16699 8.25897 3.84137 8.93335 4.66699 8.93335V7.93335ZM4.16699 7.43335H5.16699C5.16699 7.7123 4.94594 7.93335 4.66699 7.93335V6.93335V5.93335C3.84137 5.93335 3.16699 6.60773 3.16699 7.43335H4.16699ZM4.66699 6.93335V7.93335H8.66699V6.93335V5.93335H4.66699V6.93335ZM8.66699 6.93335V7.93335C8.38804 7.93335 8.16699 7.7123 8.16699 7.43335H9.16699H10.167C10.167 6.60773 9.49261 5.93335 8.66699 5.93335V6.93335ZM9.16699 7.43335H8.16699C8.16699 7.1544 8.38804 6.93335 8.66699 6.93335V7.93335V8.93335C9.49261 8.93335 10.167 8.25897 10.167 7.43335H9.16699Z" fill="white" mask="url(#path-1-inside-1_2012_558)"/>
<path d="M3.06152 2.00375H3.0625C2.98558 2.02768 2.9104 2.05566 2.83691 2.08675C2.24816 2.33612 1.77573 2.80855 1.52637 3.3973C1.80655 2.73499 2.36843 2.21974 3.06152 2.00375ZM9.81055 3.20199C9.81665 3.21555 9.82231 3.22929 9.82812 3.243C9.82229 3.22925 9.81666 3.21554 9.81055 3.20199ZM9.70605 3.00082C9.71562 3.01702 9.72525 3.03317 9.73438 3.04964C9.72516 3.03316 9.7157 3.01696 9.70605 3.00082ZM9.53711 2.75863C9.56718 2.79601 9.5967 2.83359 9.62402 2.87289C9.59629 2.8336 9.56737 2.79559 9.53711 2.75863ZM7.75684 1.90121C8.506 1.95029 9.10994 2.25355 9.50195 2.71468C9.40307 2.60051 9.29301 2.4974 9.17285 2.40707C8.7586 2.09568 8.2486 1.93697 7.75684 1.90121Z" fill="white" stroke="white"/>
<path d="M10.6663 14.6H3.99967C2.25301 14.6 0.833008 13.18 0.833008 11.4333V6.76668C0.833008 5.02001 2.25301 3.60001 3.99967 3.60001H10.6663C12.413 3.60001 13.833 5.02001 13.833 6.76668V7.73331C13.833 8.00665 13.6063 8.23331 13.333 8.23331H12.613C12.3797 8.23331 12.1664 8.31998 12.013 8.47998L12.0063 8.48665C11.7863 8.70665 11.6997 9.01331 11.7797 9.31331C11.8797 9.68664 12.273 9.96 12.713 9.96H13.333C13.6063 9.96 13.833 10.1867 13.833 10.46V11.4267C13.833 13.18 12.413 14.6 10.6663 14.6ZM3.99967 4.60001C2.80634 4.60001 1.83301 5.57335 1.83301 6.76668V11.4333C1.83301 12.6267 2.80634 13.6 3.99967 13.6H10.6663C11.8597 13.6 12.833 12.6267 12.833 11.4333V10.9667H12.713C11.813 10.9667 11.033 10.4 10.813 9.57999C10.6397 8.93333 10.8263 8.24665 11.2997 7.77999C11.6463 7.42665 12.113 7.23331 12.613 7.23331H12.833V6.76668C12.833 5.57335 11.8597 4.60001 10.6663 4.60001H3.99967Z" fill="white"/>
<path d="M13.9802 10.9667H12.6936C11.6869 10.9667 10.8336 10.22 10.7536 9.26001C10.7003 8.70667 10.9003 8.16665 11.3003 7.77331C11.6336 7.42665 12.1069 7.23331 12.6069 7.23331H13.9736C14.6269 7.23331 15.1603 7.75999 15.1603 8.41333V9.78666C15.1669 10.44 14.6336 10.9667 13.9802 10.9667ZM12.6136 8.23331C12.3803 8.23331 12.1669 8.31998 12.0136 8.47998C11.8203 8.66664 11.7269 8.92 11.7536 9.17334C11.7869 9.61334 12.2136 9.96667 12.6936 9.96667H13.9802C14.0802 9.96667 14.1669 9.88666 14.1669 9.78666V8.41333C14.1669 8.31333 14.0802 8.23331 13.9802 8.23331H12.6136Z" fill="white"/>
</svg>
